<svg width="23" height="18" viewBox="0 0 23 18" fill="none" xmlns="http://www.w3.org/2000/svg">
<path d="M22.429 2.80282L8.42903 16.8028C8.3071 16.9252 8.16221 17.0223 8.00267 17.0885C7.84313 17.1548 7.67209 17.1889 7.49935 17.1889C7.3266 17.1889 7.15556 17.1548 6.99602 17.0885C6.83649 17.0223 6.6916 16.9252 6.56966 16.8028L0.444659 10.6778C0.322571 10.5557 0.225725 10.4108 0.159652 10.2513C0.093578 10.0918 0.0595703 9.9208 0.0595703 9.74814C0.0595703 9.57548 0.093578 9.40451 0.159652 9.24499C0.225725 9.08548 0.322571 8.94054 0.444659 8.81845C0.566748 8.69636 0.711688 8.59951 0.871204 8.53344C1.03072 8.46737 1.20169 8.43336 1.37435 8.43336C1.54701 8.43336 1.71797 8.46737 1.87749 8.53344C2.03701 8.59951 2.18195 8.69636 2.30403 8.81845L7.50044 14.0149L20.5718 0.945636C20.8184 0.699067 21.1528 0.560547 21.5015 0.560547C21.8502 0.560547 22.1847 0.699067 22.4312 0.945636C22.6778 1.1922 22.8163 1.52662 22.8163 1.87532C22.8163 2.22402 22.6778 2.55844 22.4312 2.80501L22.429 2.80282Z" fill="#FBBA00"/>
</svg>
