<?xml version="1.0" encoding="utf-8"?>
<!-- Generator: Adobe Illustrator 26.1.0, SVG Export Plug-In . SVG Version: 6.00 Build 0)  -->
<svg version="1.1" id="Layer_2_copy" xmlns="http://www.w3.org/2000/svg" xmlns:xlink="http://www.w3.org/1999/xlink" x="0px"
	 y="0px" viewBox="0 0 160.7 165.3" style="enable-background:new 0 0 160.7 165.3;" xml:space="preserve">
<style type="text/css">
	.st0{fill:url(#SVGID_1_);}
	.st1{fill:#F08A01;}
	.st2{fill:url(#SVGID_00000165192354622842235600000014874974383626624912_);}
</style>
<linearGradient id="SVGID_1_" gradientUnits="userSpaceOnUse" x1="67.0739" y1="84.7525" x2="93.8542" y2="57.9723">
	<stop  offset="1.385225e-07" style="stop-color:#F08621"/>
	<stop  offset="1" style="stop-color:#E34633"/>
</linearGradient>
<circle class="st0" cx="80.2" cy="71.6" r="18.9"/>
<path class="st1" d="M80.4,16.1c-30.5,0-55.1,24.7-55.1,55.1c0,7.3,1.4,14.2,4,20.5c2.6,6.5,6.4,12.3,11.1,17.3l0.2,0.2l1.9,1.9
	l0.2,0.2l37.8,37.8l17.7-17.7l-17.7-17.7l0,0L60.2,93.7L60,93.4l-0.2-0.2l-1.4-1.4c-2.6-2.8-4.6-5.9-6-9.4
	c-1.4-3.6-2.1-7.3-2.1-11.2c0-16.6,13.5-30.1,30.1-30.1s30.1,13.5,30.1,30.1c0,3.9-0.7,7.7-2.1,11.2c-1.4,3.4-3.3,6.4-5.8,9.1
	l-2.2,2.2l0,0l0,0l-10.7,10.7l17.7,17.7l10.7-10.7l2.5-2.5c4.6-4.9,8.4-10.8,11-17.1c2.5-6.4,4-13.3,4-20.5
	C135.5,40.8,110.8,16.1,80.4,16.1z"/>
<linearGradient id="SVGID_00000182489179019146789310000017572542032139371170_" gradientUnits="userSpaceOnUse" x1="73.6262" y1="85.7125" x2="73.6262" y2="-11.0513">
	<stop  offset="1.385225e-07" style="stop-color:#F08621"/>
	<stop  offset="1" style="stop-color:#E34633"/>
</linearGradient>
<path style="fill:url(#SVGID_00000182489179019146789310000017572542032139371170_);" d="M80.4,113.8L60.2,93.7L60,93.4l-0.2-0.2
	l-1.4-1.4c-0.4-0.4-0.8-0.9-1.2-1.3c-6.3-7.3-10.1-16.7-10.1-27c0-23.1,19.3-41.9,43.2-41.9c12.6,0,23.9,5.2,31.7,13.5
	c-10.1-11.6-25-19-41.6-19c-30.5,0-55.1,24.7-55.1,55.1c0,7.3,1.4,14.2,4,20.5c2.6,6.5,6.4,12.3,11.1,17.3l0.2,0.2l1.9,1.9l0.2,0.2
	l37.8,37.8l17.7-17.7L80.4,113.8L80.4,113.8z"/>
</svg>
