<svg width="60" height="60" viewBox="0 0 60 60" fill="none" xmlns="http://www.w3.org/2000/svg">
<path fill-rule="evenodd" clip-rule="evenodd" d="M13.5795 29.6829C22.3252 25.8726 28.1569 23.3606 31.0749 22.1469C39.4062 18.6816 41.1374 18.0797 42.2657 18.0598C42.5139 18.0554 43.0688 18.1169 43.4282 18.4086C43.7317 18.6548 43.8152 18.9875 43.8552 19.221C43.8952 19.4545 43.9449 19.9864 43.9054 20.402C43.4539 25.1457 41.5003 36.6575 40.5065 41.9705C40.086 44.2186 39.2579 44.9724 38.4563 45.0462C36.7141 45.2065 35.3912 43.8949 33.7038 42.7888C31.0635 41.058 29.5718 39.9805 27.0088 38.2916C24.0469 36.3397 25.967 35.2669 27.655 33.5137C28.0968 33.0549 35.7727 26.073 35.9213 25.4396C35.9399 25.3604 35.9571 25.0651 35.7817 24.9092C35.6063 24.7533 35.3474 24.8066 35.1606 24.849C34.8958 24.9091 30.6777 27.6971 22.5064 33.2129C21.3091 34.0351 20.2247 34.4357 19.253 34.4147C18.1819 34.3915 16.1214 33.809 14.5897 33.3111C12.7109 32.7004 11.2177 32.3775 11.3477 31.3403C11.4155 30.8001 12.1594 30.2476 13.5795 29.6829Z" fill="white"/>
<rect x="0.5" y="0.5" width="59" height="59" rx="29.5" stroke="white"/>
</svg>
