<svg width="50" height="56" viewBox="0 0 50 56" fill="none" xmlns="http://www.w3.org/2000/svg">
<path d="M37.2397 43.9528C39.8836 43.3392 47.267 41.6258 48.6304 30.6374C50.1881 18.0676 48.0541 9.48673 43.8762 5.8941C42.6156 4.75058 37.1772 1.33803 25.823 1.284C25.823 1.284 12.3799 0.401601 5.85192 6.30829C2.22327 9.89192 0.998716 15.2223 0.863655 21.7323L0.848936 22.3954C0.696556 29.0528 0.427998 40.7859 11.9387 43.9814C11.9387 43.9814 11.8937 53.2106 11.8847 54.021C11.8847 54.5883 11.9747 54.9754 12.2989 55.0565C12.533 55.1195 12.8841 54.9934 13.1813 54.6963C15.0811 52.7784 21.1769 45.4311 21.1769 45.4311C29.3526 45.9713 35.8536 44.3506 36.5559 44.1255C36.7176 44.074 36.9503 44.0199 37.2397 43.9528Z" stroke="white"/>
<path d="M32.3435 21.1731C32.3637 21.5917 32.0408 21.9475 31.6221 21.9677C31.2035 21.988 30.8477 21.665 30.8275 21.2464C30.7021 18.6529 29.4974 17.4087 27.0072 17.2764C26.5886 17.2542 26.2674 16.8969 26.2896 16.4784C26.3118 16.0598 26.6692 15.7386 27.0877 15.7608C30.3647 15.9349 32.1809 17.8106 32.3435 21.1731Z" fill="white"/>
<path d="M35.458 23.274C35.877 23.2835 36.2244 22.9516 36.2339 22.5326C36.3014 19.5664 35.413 17.062 33.5672 15.051C31.7181 13.0365 29.1678 11.921 25.9396 11.6918C25.5216 11.6621 25.1586 11.977 25.1289 12.395C25.0993 12.8131 25.4141 13.176 25.8322 13.2057C28.6916 13.4088 30.877 14.3647 32.4491 16.0773C34.0225 17.7915 34.7753 19.9139 34.7166 22.4981C34.7071 22.9171 35.039 23.2645 35.458 23.274Z" fill="white"/>
<path d="M40.2229 24.0674C40.2261 24.4865 39.8888 24.8288 39.4697 24.8319C39.0506 24.835 38.7084 24.4978 38.7052 24.0787C38.6707 19.4607 37.3078 15.8709 34.6215 13.2443C31.9258 10.6171 28.5749 9.28958 24.5484 9.26383C24.1293 9.26115 23.7918 8.91922 23.7944 8.50011C23.7971 8.08101 24.139 7.74343 24.5581 7.74611C28.9706 7.77433 32.6992 9.25153 35.6817 12.1583C38.6747 15.0848 40.1855 19.064 40.2229 24.0674Z" fill="white"/>
<path d="M28.8392 30.7541C28.272 31.4654 27.2005 31.3754 27.2005 31.3754C19.4029 29.3855 17.314 21.4889 17.314 21.4889C17.314 21.4889 17.224 20.4264 17.9353 19.8501L19.3399 18.7336C20.0422 18.1934 20.4834 16.8878 19.7721 15.6092C19.3759 14.8979 18.5836 13.6283 17.9983 12.8269C17.377 11.9805 15.9364 10.2518 15.9274 10.2428C15.2341 9.41438 14.2076 9.22529 13.1271 9.78355C13.1271 9.78355 13.1181 9.79255 13.1091 9.79255C12.0826 10.3688 11.1282 11.1432 10.2368 12.1246L10.2188 12.1426C9.55247 12.944 9.16529 13.7363 9.07525 14.5107C9.05724 14.6007 9.04824 14.7178 9.05724 14.8529C9.04824 15.195 9.10226 15.5282 9.21031 15.8613L9.24633 15.8883C9.57948 17.0859 10.4259 19.0758 12.2537 22.3983C13.4422 24.5503 14.6578 26.3511 15.8643 27.8638C16.4946 28.6651 17.215 29.4845 18.0433 30.3219L18.3675 30.646C19.2049 31.4744 20.0242 32.1947 20.8256 32.825C22.3383 34.0316 24.1301 35.2471 26.2911 36.4357C29.6136 38.2635 31.6035 39.1099 32.801 39.443L32.8281 39.4791C33.1612 39.5871 33.4944 39.6321 33.8365 39.6321C33.9716 39.6411 34.0886 39.6321 34.1787 39.6141C34.953 39.5241 35.7454 39.1369 36.5467 38.4706L36.5648 38.4526C37.5462 37.5612 38.3206 36.5977 38.8968 35.5803C38.8968 35.5803 38.9058 35.5713 38.9058 35.5623C39.4641 34.4818 39.275 33.4553 38.4466 32.762C38.4466 32.762 36.7088 31.3123 35.8624 30.6911C35.0701 30.1058 33.7915 29.3224 33.0802 28.9172C31.8016 28.2059 30.496 28.6471 29.9557 29.3494L28.8392 30.7541Z" fill="white"/>
</svg>
