<svg viewBox="0 0 208 208" xml:space="preserve" xmlns="http://www.w3.org/2000/svg"><path d="M104 0C46.652 0 0 46.652 0 104c0 19.562 5.438 38.555 15.746 55.047-4.105 14.395-11.527 41.617-11.605 41.902a3.997 3.997 0 0 0 1.078 3.926 4.025 4.025 0 0 0 3.957.95l41.222-12.684C66.547 202.867 85.04 208 104 208c57.347 0 104-46.652 104-104S161.347 0 104 0zm0 200c-18.075 0-35.684-5.05-50.926-14.606a4.015 4.015 0 0 0-3.3-.433l-35.997 11.078c2.645-9.652 7.395-26.918 10.152-36.52a4.012 4.012 0 0 0-.488-3.285C13.34 140.692 8 122.63 8 104 8 51.066 51.066 8 104 8s96 43.066 96 96-43.066 96-96 96z" fill="#ffffff" class="fill-000000"></path><path d="M171.941 128.504c-7.383-4.102-13.672-8.211-18.262-11.211-3.504-2.289-6.035-3.941-7.89-4.871-5.187-2.59-9.121-.758-10.617.75-.188.187-.356.39-.5.61-5.387 8.081-12.426 15.816-14.485 16.23-2.379-.371-13.519-6.704-24.593-15.926-11.305-9.422-18.414-18.442-19.461-24.582C83.387 82.039 86 77.344 86 72c0-5.508-12.848-28.504-15.172-30.828-2.332-2.328-7.582-2.692-15.613-1.094a4.009 4.009 0 0 0-2.043 1.094c-.973.972-23.715 24.16-12.906 52.266 11.863 30.843 42.316 66.695 81.14 72.52 4.41.66 8.547.987 12.422.987 22.84 0 36.32-11.492 40.117-34.289a3.996 3.996 0 0 0-2.004-4.152zm-49.347 29.539c-41.055-6.156-66.918-46.832-74.86-67.48-7.878-20.481 6.653-38.739 10.301-42.868 2.969-.503 6.09-.715 7.395-.511C68.151 50.973 77.586 68.793 78 72c0 2.102-.684 5.024-8.828 13.172A3.997 3.997 0 0 0 68 88c0 20.945 44.175 50 52 50 6.805 0 15.675-11.438 20.726-18.887.294.012.786.113 1.485.465 1.441.723 3.937 2.352 7.094 4.414 4.168 2.723 9.703 6.34 16.238 10.086-2.969 14.281-11.262 28.727-42.95 23.965z" fill="#ffffff" class="fill-000000"></path></svg>