<svg width="80" height="80" viewBox="0 0 80 80" fill="none" xmlns="http://www.w3.org/2000/svg">
<path d="M24.9805 33.8825C24.6871 32.7848 23.8224 31.9204 22.7247 31.627C20.735 31.0938 12.7567 31.0938 12.7567 31.0938C12.7567 31.0938 4.77847 31.0938 2.78879 31.627C1.69104 31.9204 0.82641 32.7848 0.533019 33.8825C4.00572e-07 35.8722 0 40.0236 0 40.0236C0 40.0236 4.00572e-07 44.175 0.533019 46.1644C0.82641 47.2622 1.69104 48.1268 2.78879 48.4202C4.77847 48.9534 12.7567 48.9534 12.7567 48.9534C12.7567 48.9534 20.735 48.9534 22.7247 48.4202C23.8224 48.1268 24.6871 47.2622 24.9805 46.1644C25.5137 44.175 25.5137 40.0236 25.5137 40.0236C25.5137 40.0236 25.5137 35.8722 24.9805 33.8825Z" fill="#FF0000"/>
<path d="M10.2051 43.8505L16.8336 40.0234L10.2051 36.1963V43.8505Z" fill="white"/>
<path d="M39.861 45.5898C40.0007 45.2252 40.0708 44.6292 40.0708 43.8019V40.317C40.0708 39.5143 40.0007 38.9275 39.861 38.5564C39.721 38.1855 39.4746 37.9999 39.122 37.9999C38.7813 37.9999 38.5411 38.1855 38.4014 38.5564C38.2613 38.9275 38.1916 39.5143 38.1916 40.317V43.8019C38.1916 44.6292 38.2582 45.2252 38.3922 45.5898C38.526 45.9548 38.7692 46.1371 39.122 46.1371C39.4746 46.1371 39.721 45.9548 39.861 45.5898ZM37.033 47.3415C36.5281 47.0013 36.1692 46.4719 35.9566 45.754C35.7437 45.0366 35.6372 44.0817 35.6372 42.8896V41.2658C35.6372 40.0616 35.7586 39.0945 36.0022 38.3649C36.2452 37.6351 36.6253 37.1029 37.1424 36.7683C37.6592 36.434 38.3376 36.2666 39.1768 36.2666C40.0038 36.2666 40.6666 36.4369 41.1654 36.7776C41.6642 37.118 42.029 37.6504 42.2602 38.3739C42.4911 39.0976 42.607 40.0616 42.607 41.2658V42.8896C42.607 44.0817 42.4944 45.0398 42.2695 45.7633C42.0443 46.487 41.6793 47.0162 41.1747 47.3506C40.6698 47.6851 39.9856 47.8523 39.122 47.8523C38.234 47.8523 37.5376 47.682 37.033 47.3415Z" fill="white"/>
<path d="M76.1043 38.2084C75.9768 38.3666 75.8913 38.6251 75.8489 38.9838C75.806 39.3427 75.785 39.8869 75.785 40.6167V41.4196H77.6277V40.6167C77.6277 39.8993 77.6034 39.3549 77.5548 38.9838C77.5061 38.6129 77.4181 38.3515 77.2902 38.1994C77.1625 38.0472 76.9649 37.9711 76.6974 37.9711C76.4296 37.9711 76.232 38.0505 76.1043 38.2084ZM75.785 42.9157V43.4813C75.785 44.1991 75.806 44.7374 75.8489 45.0961C75.8913 45.455 75.9793 45.7165 76.1135 45.8807C76.2473 46.0447 76.4537 46.1271 76.7339 46.1271C77.1107 46.1271 77.3692 45.9811 77.5091 45.689C77.6487 45.397 77.725 44.9107 77.7371 44.2294L79.9085 44.3571C79.9207 44.4547 79.9268 44.5885 79.9268 44.7584C79.9268 45.7925 79.6439 46.5649 79.0783 47.0759C78.5129 47.5865 77.7128 47.842 76.6791 47.842C75.4385 47.842 74.5686 47.4531 74.0699 46.6744C73.5709 45.896 73.3218 44.6918 73.3218 43.0617V41.1094C73.3218 39.4307 73.5801 38.2055 74.0974 37.4329C74.6142 36.6606 75.4992 36.2744 76.7522 36.2744C77.6155 36.2744 78.2786 36.4326 78.7408 36.7486C79.2028 37.0651 79.5284 37.5578 79.7169 38.2265C79.9055 38.8956 79.9998 39.8203 79.9998 41V42.9157H75.785Z" fill="white"/>
<path d="M30.9017 42.7067L28.0371 32.3613H30.5367L31.5402 37.0505C31.7957 38.2063 31.9841 39.1914 32.1057 40.0063H32.1788C32.2639 39.4225 32.4525 38.4434 32.7444 37.0688L33.7844 32.3613H36.284L33.383 42.7067V47.6697H30.9017V42.7067Z" fill="white"/>
<path d="M50.7369 36.4854V47.6697H48.7663L48.5473 46.3015H48.4927C47.9573 47.3354 47.1545 47.8522 46.0842 47.8522C45.3422 47.8522 44.7949 47.609 44.4421 47.1224C44.0893 46.636 43.9131 45.8755 43.9131 44.8419V36.4854H46.431V44.6957C46.431 45.1947 46.4858 45.5504 46.5952 45.763C46.7046 45.9761 46.8869 46.0824 47.1425 46.0824C47.3615 46.0824 47.5713 46.0156 47.7719 45.8816C47.9727 45.7479 48.1216 45.5777 48.219 45.3709V36.4854H50.7369Z" fill="white"/>
<path d="M63.6519 36.4854V47.6697H61.6814L61.4623 46.3015H61.4077C60.8722 47.3354 60.0695 47.8522 58.9993 47.8522C58.2573 47.8522 57.71 47.609 57.3572 47.1224C57.0043 46.636 56.8281 45.8755 56.8281 44.8419V36.4854H59.346V44.6957C59.346 45.1947 59.4006 45.5504 59.51 45.763C59.6196 45.9761 59.8019 46.0824 60.0575 46.0824C60.2766 46.0824 60.4864 46.0156 60.6869 45.8816C60.8877 45.7479 61.0364 45.5777 61.1341 45.3709V36.4854H63.6519Z" fill="white"/>
<path d="M57.5785 34.3867H55.0789V47.6695H52.6158V34.3867H50.1162V32.3613H57.5785V34.3867Z" fill="white"/>
<path d="M69.6771 42.8351C69.6771 43.6502 69.6435 44.2889 69.5765 44.7509C69.5097 45.2133 69.3972 45.5418 69.239 45.7361C69.0809 45.9308 68.8677 46.028 68.6006 46.028C68.3937 46.028 68.2022 45.9797 68.026 45.882C67.8494 45.7848 67.7066 45.639 67.5971 45.4441V39.0948C67.682 38.7909 67.8279 38.5414 68.035 38.3467C68.2417 38.1524 68.4664 38.0548 68.71 38.0548C68.9654 38.0548 69.163 38.1552 69.3031 38.3557C69.4427 38.5565 69.5402 38.894 69.5948 39.3686C69.6496 39.8428 69.6771 40.5178 69.6771 41.3936V42.8351ZM71.985 38.273C71.8329 37.5677 71.5866 37.0568 71.2461 36.7403C70.9055 36.4244 70.437 36.2661 69.8411 36.2661C69.3789 36.2661 68.9471 36.3969 68.5458 36.6584C68.1444 36.9198 67.8342 37.2636 67.6154 37.6893H67.5969L67.5971 31.7959H65.1704V47.6695H67.2502L67.5058 46.6112H67.5606C67.7551 46.9882 68.0468 47.2862 68.4364 47.5052C68.8253 47.7241 69.2573 47.8337 69.7319 47.8337C70.5829 47.8337 71.2096 47.4414 71.6109 46.6568C72.0123 45.8722 72.2131 44.6469 72.2131 42.9803V41.2107C72.2131 39.9579 72.137 38.9786 71.985 38.273Z" fill="white"/>
</svg>
